HIERARCHY
ROOT Hips
{
	OFFSET 0.000000 0.000000 0.000000
	CHANNELS 6 Xposition Yposition Zposition Xrotation Yrotation Zrotation
	JOINT LeftUpLeg_virtual
	{
		OFFSET 0.000000 0.000000 0.000000
		CHANNELS 3 Xrotation Yrotation Zrotation
		JOINT LeftUpLeg
		{
			OFFSET 11.394100 -6.187798 -0.413800
			CHANNELS 3 Xrotation Yrotation Zrotation
			JOINT LeftLeg
			{
				OFFSET 0.430247 -32.302673 3.732800
				CHANNELS 3 Xrotation Yrotation Zrotation
				JOINT LeftFoot
				{
					OFFSET -0.430247 -48.264931 -6.423300
					CHANNELS 3 Xrotation Yrotation Zrotation
					JOINT LeftToeBase
					{
						OFFSET 4.230900 -16.068199 23.438400
						CHANNELS 3 Xrotation Yrotation Zrotation
						JOINT LeftToe_End
						{
							OFFSET 4.510700 0.695400 19.974600
							CHANNELS 3 Xrotation Yrotation Zrotation
							End Site
							{
								OFFSET 0 0 0
							}
						}
					}
				}
			}
		}
	}
	JOINT RightUpLeg_virtual
	{
		OFFSET 0.000000 0.000000 0.000000
		CHANNELS 3 Xrotation Yrotation Zrotation
		JOINT RightUpLeg
		{
			OFFSET -11.333700 -6.187798 -0.413800
			CHANNELS 3 Xrotation Yrotation Zrotation
			JOINT RightLeg
			{
				OFFSET -0.430392 -32.302628 3.733000
				CHANNELS 3 Xrotation Yrotation Zrotation
				JOINT RightFoot
				{
					OFFSET 0.430392 -48.264973 -6.423500
					CHANNELS 3 Xrotation Yrotation Zrotation
					JOINT RightToeBase
					{
						OFFSET -4.230900 -16.068199 23.438400
						CHANNELS 3 Xrotation Yrotation Zrotation
						JOINT RightToe_End
						{
							OFFSET -4.510700 0.695400 19.974600
							CHANNELS 3 Xrotation Yrotation Zrotation
							End Site
							{
								OFFSET 0 0 0
							}
						}
					}
				}
			}
		}
	}
	JOINT Spine_virtual
	{
		OFFSET 0.000000 0.000000 0.000000
		CHANNELS 3 Xrotation Yrotation Zrotation
		JOINT Spine
		{
			OFFSET -0.002400 12.777504 0.315300
			CHANNELS 3 Xrotation Yrotation Zrotation
			JOINT Spine1
			{
				OFFSET -0.002067 5.816869 0.032633
				CHANNELS 3 Xrotation Yrotation Zrotation
				JOINT Spine1_split
				{
					OFFSET -0.002067 5.816869 0.032633
					CHANNELS 3 Xrotation Yrotation Zrotation
					JOINT Spine2
					{
						OFFSET -0.002067 5.816869 0.032633
						CHANNELS 3 Xrotation Yrotation Zrotation
						JOINT Neck_virtual
						{
							OFFSET 0.000000 0.000000 0.000000
							CHANNELS 3 Xrotation Yrotation Zrotation
							JOINT Neck
							{
								OFFSET -0.003700 21.199493 -0.826900
								CHANNELS 3 Xrotation Yrotation Zrotation
								JOINT Head
								{
									OFFSET 0.000000 20.442200 4.834800
									CHANNELS 3 Xrotation Yrotation Zrotation
									JOINT HeadTop_End
									{
										OFFSET 0.000000 34.668396 4.968400
										CHANNELS 3 Xrotation Yrotation Zrotation
										End Site
										{
											OFFSET 0 0 0
										}
									}
								}
							}
						}
						JOINT LeftShoulder_virtual
						{
							OFFSET 0.000000 0.000000 0.000000
							CHANNELS 3 Xrotation Yrotation Zrotation
							JOINT LeftShoulder
							{
								OFFSET 3.288150 8.794197 -1.372250
								CHANNELS 3 Xrotation Yrotation Zrotation
								JOINT LeftShoulder_split
								{
									OFFSET 3.288150 8.794197 -1.372250
									CHANNELS 3 Xrotation Yrotation Zrotation
									JOINT LeftArm
									{
										OFFSET 11.953299 -2.279007 -0.146200
										CHANNELS 3 Xrotation Yrotation Zrotation
										JOINT LeftForeArm
										{
											OFFSET 18.448900 0.000000 0.000000
											CHANNELS 3 Xrotation Yrotation Zrotation
											JOINT LeftHand
											{
												OFFSET 29.527798 0.000000 0.000000
												CHANNELS 3 Xrotation Yrotation Zrotation
												End Site
												{
													OFFSET 0 0 0
												}
											}
										}
									}
								}
							}
						}
						JOINT RightShoulder_virtual
						{
							OFFSET 0.000000 0.000000 0.000000
							CHANNELS 3 Xrotation Yrotation Zrotation
							JOINT RightShoulder
							{
								OFFSET -3.249400 8.794197 -1.372250
								CHANNELS 3 Xrotation Yrotation Zrotation
								JOINT RightShoulder_split
								{
									OFFSET -3.249400 8.794197 -1.372250
									CHANNELS 3 Xrotation Yrotation Zrotation
									JOINT RightArm
									{
										OFFSET -11.953299 -2.279007 -0.146200
										CHANNELS 3 Xrotation Yrotation Zrotation
										JOINT RightForeArm
										{
											OFFSET -18.448900 0.000000 0.000000
											CHANNELS 3 Xrotation Yrotation Zrotation
											JOINT RightHand
											{
												OFFSET -29.527802 0.000000 0.000000
												CHANNELS 3 Xrotation Yrotation Zrotation
												End Site
												{
													OFFSET 0 0 0
												}
											}
										}
									}
								}
							}
						}
					}
				}
			}
		}
	}
}
MOTION
Frames: 10
Frame Time: 0.03333333
64.199768 101.306564 152.598404 0.000000 0.000000 0.000000 -7.300623 34.940960 10.534127 -16.978664 7.321433 -16.398613 28.405329 -10.113587 1.253401 28.845221 3.670070 19.178611 -49.831469 0.381005 5.348878 0.000000 0.000000 0.000000 -5.350787 36.024023 9.782648 -9.777606 20.588915 -2.056228 40.910904 -5.539230 -1.678630 32.351502 -5.198425 -5.870656 -42.308804 2.251614 6.050480 0.000000 0.000000 0.000000 -6.297273 37.470042 9.949766 4.277263 -1.130176 -6.683936 -1.997091 -1.345439 0.949518 0.827616 0.505638 0.107035 0.000000 0.000000 0.000000 -1.878004 -1.298604 1.308794 -9.010018 3.409235 2.286390 6.270063 6.512441 -2.647286 0.000000 0.000000 0.000000 -2.183313 -0.911498 1.207531 0.853906 8.914259 -3.513322 0.171082 2.922666 -1.256848 6.552276 -8.948199 -68.738669 11.612423 -24.226036 4.388727 0.000000 0.000000 0.000000 -1.789319 -1.185874 1.237315 0.518766 1.846991 3.241579 1.884489 1.601735 -2.644124 -0.372013 7.566424 77.917842 11.606814 15.045628 -3.141702 0.000000 0.000000 0.000000 
66.487206 102.299904 155.081772 0.000000 0.000000 0.000000 -5.838520 36.648568 8.656208 -13.527062 5.566559 -15.185233 25.942775 -11.119174 1.732561 25.338530 4.868175 20.757599 -46.789839 1.551927 3.341854 0.000000 0.000000 0.000000 -4.420878 37.530790 8.128510 -15.478860 22.463118 -0.739811 36.784342 -3.272363 -2.214840 36.731934 -2.708314 -5.644042 -44.569023 -0.043248 8.668372 0.000000 0.000000 0.000000 -5.059077 38.138673 8.072736 4.428018 -1.764102 -6.054381 -2.211356 -1.772555 1.073996 0.823347 0.335638 0.216993 0.000000 0.000000 0.000000 -1.906489 -1.666924 1.523403 -8.765933 3.513002 2.642782 6.442778 6.734289 -3.052048 0.000000 0.000000 0.000000 -2.158406 -1.339903 1.405166 0.668758 7.713933 -3.322615 0.313922 3.419810 -1.150716 5.215218 -10.954311 -68.607194 11.726602 -24.763592 4.578630 0.000000 0.000000 0.000000 -1.946121 -1.596587 1.419391 0.261587 0.767617 3.980117 2.275029 1.913774 -2.773813 -0.251449 6.239575 77.347255 11.426560 14.765136 -3.245839 0.000000 0.000000 0.000000 
68.808769 103.242073 157.708176 0.000000 0.000000 0.000000 -4.337616 38.464494 6.662405 -9.978578 4.955100 -13.570768 23.117089 -13.305302 1.789400 21.911216 4.560179 22.318312 -44.943990 2.020301 2.364043 0.000000 0.000000 0.000000 -3.239589 39.381214 6.199465 -19.468932 21.517828 -0.344905 30.501200 -0.791534 -2.547195 40.750083 0.453642 -4.925170 -47.120457 -1.568372 8.901674 0.000000 0.000000 0.000000 -3.756979 38.793794 6.104298 4.602254 -2.317080 -5.475899 -2.386266 -2.128601 1.204628 0.896619 0.407360 0.184576 0.000000 0.000000 0.000000 -1.977312 -2.005903 1.670007 -8.597287 3.402195 3.339601 6.354387 6.930964 -3.418287 0.000000 0.000000 0.000000 -2.197263 -1.724586 1.562912 0.510971 6.442647 -3.057815 0.524513 3.781890 -1.031574 3.770613 -12.883737 -68.534296 11.842920 -25.117160 4.803097 0.000000 0.000000 0.000000 -2.040754 -1.974877 1.561171 0.011208 -0.309462 4.865683 2.614497 2.237465 -2.856573 0.132545 4.985655 76.664502 11.316478 14.704924 -3.403408 0.000000 0.000000 0.000000 
71.151932 103.970688 160.315292 0.000000 0.000000 0.000000 -3.033607 40.394517 5.030284 -6.899059 5.763498 -11.869346 20.721573 -16.584736 1.414632 20.168297 2.726474 23.668388 -45.105712 1.570057 2.955767 0.000000 0.000000 0.000000 -2.095130 41.782159 4.524843 -22.168076 17.911486 -1.052250 23.142585 0.718734 -2.341637 42.793553 2.655216 -4.654400 -47.253677 -1.767325 7.193101 0.000000 0.000000 0.000000 -2.832156 39.802436 4.664301 4.879291 -2.821575 -5.220900 -2.457354 -2.424581 1.388286 0.843798 0.713854 0.084411 0.000000 0.000000 0.000000 -2.091581 -2.298296 1.802323 -8.625716 3.069639 4.309194 6.014746 7.118544 -3.659172 0.000000 0.000000 0.000000 -2.290594 -2.045663 1.731742 0.383206 5.225733 -2.589546 0.786442 3.971286 -0.937121 2.318279 -14.550436 -68.565851 11.896375 -25.517394 5.028563 0.000000 0.000000 0.000000 -2.077113 -2.299166 1.709997 -0.210001 -1.320771 5.816058 2.955502 2.552607 -2.861772 0.835049 4.059283 75.843807 11.319750 14.880271 -3.613868 0.000000 0.000000 0.000000 
73.443054 104.279663 162.773666 0.000000 0.000000 0.000000 -2.181778 42.620281 4.085755 -4.700412 7.487197 -10.341733 19.746606 -20.794419 0.921062 20.855223 0.291956 24.349020 -45.131202 0.900640 3.961162 0.000000 0.000000 0.000000 -1.040594 44.936839 3.404695 -24.260497 12.557883 -2.513109 16.509552 1.319987 -1.824045 42.809177 3.482112 -4.969837 -44.418394 -0.599106 4.110458 0.000000 0.000000 0.000000 -2.669605 41.754032 4.125510 5.268712 -3.318321 -5.516102 -2.396526 -2.677318 1.662517 0.824143 1.112762 -0.093966 0.000000 0.000000 0.000000 -2.194783 -2.524812 1.976366 -8.951819 2.515325 5.456373 5.529985 7.265571 -3.731851 0.000000 0.000000 0.000000 -2.365765 -2.285749 1.972707 0.293900 4.150580 -1.846397 1.099549 3.986579 -0.937807 0.869559 -15.823013 -68.679369 11.866059 -26.144270 5.253820 0.000000 0.000000 0.000000 -2.071342 -2.560241 1.918400 -0.404115 -2.210936 6.811754 3.347488 2.891898 -2.785854 1.677610 3.491198 74.924409 11.422864 15.145649 -3.836908 0.000000 0.000000 0.000000 
75.829109 104.221558 165.484192 0.000000 0.000000 0.000000 -1.643649 44.909467 3.900818 -2.835471 9.825219 -9.409803 19.461376 -24.501152 0.473450 21.830261 -1.549329 25.437931 -42.815382 0.809442 4.046356 0.000000 0.000000 0.000000 -0.156418 48.471066 2.954102 -26.498303 6.645318 -4.124845 11.989682 1.226233 -1.340814 42.113205 3.209055 -5.015234 -40.497899 1.242184 0.396283 0.000000 0.000000 0.000000 -3.273973 44.563812 4.590819 5.646191 -3.796673 -6.401441 -2.188308 -2.890731 2.029035 0.845618 1.529815 -0.311633 0.000000 0.000000 0.000000 -2.191468 -2.670759 2.234480 -9.550683 1.774951 6.660922 5.071144 7.318344 -3.604578 0.000000 0.000000 0.000000 -2.408440 -2.440450 2.313200 0.237686 3.242585 -0.855116 1.297968 3.792949 -1.039882 -0.589025 -16.554150 -68.875587 11.718643 -26.964139 5.452692 0.000000 0.000000 0.000000 -2.017965 -2.736063 2.212538 -0.559246 -2.939180 7.790682 3.630541 3.062422 -2.562319 2.398582 3.146848 74.013473 11.561226 15.220050 -4.033989 0.000000 0.000000 0.000000 
78.250862 103.897293 168.189728 0.000000 0.000000 0.000000 -1.525933 47.361126 4.406001 -0.792832 11.769783 -8.805692 19.394932 -27.293072 0.287757 22.221986 -2.415907 25.961085 -39.290810 1.320032 3.210126 0.000000 0.000000 0.000000 0.340893 52.010986 3.215718 -28.874573 1.793473 -5.168504 9.935442 1.110711 -1.049468 41.759223 2.367818 -4.469814 -36.817110 2.993981 -2.930517 0.000000 0.000000 0.000000 -4.655618 47.797804 5.905145 5.824177 -4.227386 -7.663882 -1.860652 -3.031061 2.461991 0.854827 1.785500 -0.482205 0.000000 0.000000 0.000000 -2.029097 -2.730707 2.571507 -10.181049 0.990368 7.726301 4.841060 7.178645 -3.300191 0.000000 0.000000 0.000000 -2.386755 -2.501482 2.708344 0.202662 2.622963 0.208389 1.320045 3.436907 -1.276384 -1.865920 -16.755566 -69.136022 11.534142 -27.937366 5.618053 0.000000 0.000000 0.000000 -1.914051 -2.813180 2.569958 -0.675585 -3.434300 8.705150 3.659562 3.010965 -2.274865 2.804875 2.872612 73.208843 11.657570 14.814112 -4.168712 0.000000 0.000000 0.000000 
80.602242 103.407944 171.111588 0.000000 0.000000 0.000000 -1.861329 49.849173 5.271565 2.047623 12.466619 -8.423598 18.867141 -29.008957 0.306201 21.059568 -2.302082 25.750117 -37.377158 1.941783 1.865409 0.000000 0.000000 0.000000 0.517260 55.259034 3.735392 -30.841736 -1.176435 -5.123065 10.520659 1.377550 -1.067173 42.153687 1.616411 -3.470150 -34.934744 4.308086 -5.068824 0.000000 0.000000 0.000000 -6.319754 50.959877 7.500435 5.616380 -4.500421 -8.938736 -1.494213 -3.086076 2.881892 0.927018 1.954198 -0.546043 0.000000 0.000000 0.000000 -1.700275 -2.709992 2.933264 -10.668652 0.275439 8.481815 4.963907 6.837334 -2.893252 0.000000 0.000000 0.000000 -2.311180 -2.467267 3.100254 0.170266 2.319117 1.117924 1.221365 2.784468 -1.571801 -2.723874 -16.562618 -69.436693 11.408661 -28.777762 5.738926 0.000000 0.000000 0.000000 -1.754033 -2.800159 2.928885 -0.743957 -3.652116 9.527343 3.411593 2.809284 -1.993374 2.883096 2.557686 72.690240 11.688904 13.888162 -4.245427 0.000000 0.000000 0.000000 
82.987823 102.904488 174.300034 0.000000 0.000000 0.000000 -2.665617 52.023618 6.169396 5.659254 11.761324 -7.874232 18.066933 -29.442487 0.450350 18.628316 -1.489096 25.358425 -39.916739 1.930218 1.246269 0.000000 0.000000 0.000000 0.336984 57.622734 4.171483 -32.186003 -2.106488 -3.909358 13.172303 1.704895 -1.369052 43.491960 1.166906 -2.130983 -35.952849 4.883000 -5.439882 0.000000 0.000000 0.000000 -7.717280 53.417967 8.750011 4.988323 -4.550808 -9.747765 -1.151085 -3.028348 3.224881 0.992231 1.999265 -0.562726 0.000000 0.000000 0.000000 -1.273547 -2.637879 3.271426 -10.856136 -0.209726 8.759774 5.416995 6.360704 -2.481690 0.000000 0.000000 0.000000 -2.207393 -2.365098 3.401201 0.123008 2.373130 1.634862 1.105697 1.935282 -1.735483 -2.905441 -16.123433 -69.781953 11.372269 -29.104454 5.743221 0.000000 0.000000 0.000000 -1.524187 -2.720295 3.209524 -0.770740 -3.558580 10.111949 2.922201 2.521741 -1.759449 2.811660 2.267004 72.552913 11.661080 12.645241 -4.314420 0.000000 0.000000 0.000000 
85.177216 102.475418 177.562057 0.000000 0.000000 0.000000 -4.048537 53.910704 6.780497 8.875477 9.799818 -6.249088 18.065526 -29.492750 0.789687 17.924763 -0.727425 23.693119 -48.771553 0.631776 2.503118 0.000000 0.000000 0.000000 -0.461232 59.298890 4.421070 -32.886818 -1.420268 -1.940711 17.088770 2.061887 -1.827517 45.332847 1.228176 -1.092307 -39.159278 4.717256 -4.333249 0.000000 0.000000 0.000000 -8.572807 55.071467 9.099707 4.062515 -4.395588 -9.730661 -0.897484 -2.885348 3.446067 1.028568 1.947703 -0.436240 0.000000 0.000000 0.000000 -0.861603 -2.556023 3.529419 -10.719351 -0.397740 8.490991 6.080098 5.873196 -2.156773 0.000000 0.000000 0.000000 -2.073569 -2.221244 3.565351 0.056536 2.797389 1.603075 1.000495 1.003128 -1.745543 -2.246985 -15.650094 -70.162510 11.470375 -28.564206 5.574156 0.000000 0.000000 0.000000 -1.253802 -2.618813 3.362073 -0.766575 -3.183973 10.363818 2.399561 2.274451 -1.572635 2.785717 2.066899 72.794387 11.599262 11.488458 -4.419284 0.000000 0.000000 0.000000 
